<?xml version="1.0" encoding="UTF-8" standalone="no"?>
<!-- Created with Inkscape (http://www.inkscape.org/) -->

<svg
   xmlns:dc="http://purl.org/dc/elements/1.1/"
   xmlns:cc="http://creativecommons.org/ns#"
   xmlns:rdf="http://www.w3.org/1999/02/22-rdf-syntax-ns#"
   xmlns:svg="http://www.w3.org/2000/svg"
   xmlns="http://www.w3.org/2000/svg"
   xmlns:sodipodi="http://sodipodi.sourceforge.net/DTD/sodipodi-0.dtd"
   xmlns:inkscape="http://www.inkscape.org/namespaces/inkscape"
   width="24"
   height="48"
   id="svg2"
   version="1.1"
   inkscape:version="0.48.4 r9939"
   sodipodi:docname="copyright.svg">
  <defs
     id="defs4" />
  <sodipodi:namedview
     id="base"
     pagecolor="#ffffff"
     bordercolor="#666666"
     borderopacity="1.0"
     inkscape:pageopacity="0.0"
     inkscape:pageshadow="2"
     inkscape:zoom="15.020833"
     inkscape:cx="1.6144244"
     inkscape:cy="24"
     inkscape:document-units="px"
     inkscape:current-layer="layer1"
     showgrid="true"
     fit-margin-top="0"
     fit-margin-left="0"
     fit-margin-right="0"
     fit-margin-bottom="0"
     inkscape:window-width="1600"
     inkscape:window-height="848"
     inkscape:window-x="-8"
     inkscape:window-y="-8"
     inkscape:window-maximized="1"
     objecttolerance="10000"
     guidetolerance="10000" />
  <metadata
     id="metadata7">
    <rdf:RDF>
      <cc:Work
         rdf:about="">
        <dc:format>image/svg+xml</dc:format>
        <dc:type
           rdf:resource="http://purl.org/dc/dcmitype/StillImage" />
      </cc:Work>
    </rdf:RDF>
  </metadata>
  <g
     inkscape:label="Layer 1"
     inkscape:groupmode="layer"
     id="layer1"
     transform="translate(-38.571264,-14.644706)">
    <text
       xml:space="preserve"
       style="font-size:25px;font-style:normal;font-weight:normal;line-height:125%;letter-spacing:0px;word-spacing:0px;fill:#000000;fill-opacity:1;stroke:none;font-family:Sans"
       x="334.7244"
       y="245.51784"
       id="text3761"
       sodipodi:linespacing="125%"><tspan
         sodipodi:role="line"
         id="tspan3763"
         x="334.7244"
         y="245.51784" /></text>
    <path
       style="fill:#76b1f5;fill-opacity:1;stroke:none"
       d="M 12 26 C 6.4771526 26 2 30.477153 2 36 C 2 41.522847 6.4771526 46 12 46 C 17.522847 46 22 41.522847 22 36 C 22 30.477153 17.522847 26 12 26 z M 12 28.90625 C 15.912017 28.90625 19.09375 32.077978 19.09375 36 C 19.09375 39.922022 15.912017 43.09375 12 43.09375 C 8.087983 43.09375 4.90625 39.922022 4.90625 36 C 4.90625 32.077978 8.087983 28.90625 12 28.90625 z "
       transform="translate(38.571264,14.644706)"
       id="path2989" />
    <text
       xml:space="preserve"
       style="font-size:13.82626724000000000px;font-style:normal;font-weight:normal;line-height:125%;letter-spacing:0px;word-spacing:0px;fill:#76b1f5;fill-opacity:1;stroke:none;font-family:Sans"
       x="46.693501"
       y="54.526947"
       id="text3771"
       sodipodi:linespacing="125%"
       transform="scale(0.97894504,1.0215078)"><tspan
         sodipodi:role="line"
         id="tspan3773"
         x="46.693501"
         y="54.526947"
         style="font-style:normal;font-variant:normal;font-weight:bold;font-stretch:normal;font-family:Arial;-inkscape-font-specification:Arial Bold;fill:#76b1f5;fill-opacity:1">C</tspan></text>
    <path
       style="fill:#bbbbbb;fill-opacity:1;stroke:none"
       d="M 12 2 C 6.4771526 2 2 6.4771526 2 12 C 2 17.522847 6.4771526 22 12 22 C 17.522847 22 22 17.522847 22 12 C 22 6.4771526 17.522847 2 12 2 z M 12 4.90625 C 15.912017 4.90625 19.09375 8.0779778 19.09375 12 C 19.09375 15.922022 15.912017 19.09375 12 19.09375 C 8.087983 19.09375 4.90625 15.922022 4.90625 12 C 4.90625 8.0779778 8.087983 4.90625 12 4.90625 z "
       transform="translate(38.571264,14.644706)"
       id="path2989-8" />
    <text
       xml:space="preserve"
       style="font-size:13.82626724000000000px;font-style:normal;font-weight:normal;line-height:125%;letter-spacing:0px;word-spacing:0px;fill:#bbbbbb;fill-opacity:1;stroke:none;font-family:Sans"
       x="46.693501"
       y="31.032274"
       id="text3771-2"
       sodipodi:linespacing="125%"
       transform="scale(0.97894504,1.0215078)"><tspan
         sodipodi:role="line"
         id="tspan3773-4"
         x="46.693501"
         y="31.032274"
         style="font-style:normal;font-variant:normal;font-weight:bold;font-stretch:normal;font-family:Arial;-inkscape-font-specification:Arial Bold;fill:#bbbbbb;fill-opacity:1">C</tspan></text>
  </g>
</svg>
